<?xml version="1.0" standalone="no"?>
<!DOCTYPE svg PUBLIC "-//W3C//DTD SVG 20010904//EN"
 "http://www.w3.org/TR/2001/REC-SVG-20010904/DTD/svg10.dtd">
<svg version="1.0" xmlns="http://www.w3.org/2000/svg"
 width="534.000000pt" height="534.000000pt" viewBox="0 0 534.000000 534.000000"
 preserveAspectRatio="xMidYMid meet">
<metadata>
Created by potrace 1.14, written by Peter Selinger 2001-2017
</metadata>
<g transform="translate(0.000000,534.000000) scale(0.100000,-0.100000)"
fill="#000000" stroke="none">
<path d="M1467 4984 c-1 -1 -22 -5 -47 -9 -25 -3 -72 -11 -105 -16 -33 -6 -69
-12 -80 -14 -11 -1 -27 -5 -35 -9 -8 -3 -26 -7 -40 -8 -14 -2 -27 -5 -30 -9
-3 -3 -27 -13 -55 -23 -74 -27 -190 -80 -193 -88 -2 -5 -10 -8 -17 -8 -7 0
-15 -3 -17 -7 -1 -5 -30 -26 -62 -48 -54 -36 -180 -154 -231 -216 -30 -36
-105 -154 -105 -165 0 -5 -11 -21 -24 -36 -14 -14 -22 -29 -19 -32 4 -3 2 -6
-4 -6 -6 0 -9 -9 -6 -20 3 -11 0 -20 -6 -20 -6 0 -11 -8 -11 -18 0 -10 -5 -23
-12 -30 -7 -7 -9 -12 -4 -12 4 0 -2 -13 -13 -29 -11 -16 -36 -74 -55 -130 -18
-55 -37 -97 -41 -93 -5 4 -5 1 -1 -6 4 -7 2 -28 -4 -46 -6 -19 -13 -47 -16
-63 -9 -42 -12 -58 -14 -58 -1 0 -3 -16 -6 -35 -2 -19 -7 -46 -10 -60 -4 -14
-8 -43 -10 -65 -1 -22 -5 -62 -8 -90 -8 -67 -10 -256 -3 -275 3 -8 8 -49 10
-91 2 -42 7 -81 11 -87 4 -7 5 -12 3 -12 -3 0 3 -37 13 -82 10 -45 16 -86 14
-90 -3 -4 -1 -8 4 -8 6 0 13 -16 17 -36 3 -20 11 -48 16 -63 6 -14 11 -28 11
-31 0 -3 4 -13 10 -23 5 -10 11 -27 13 -37 5 -25 140 -295 155 -310 22 -22 58
-79 53 -84 -4 -3 -1 -6 5 -6 5 0 21 -17 33 -37 13 -21 29 -42 36 -46 7 -5 11
-12 8 -18 -4 -5 -2 -9 2 -9 8 0 113 -125 113 -134 0 -1 25 -29 55 -62 30 -32
55 -62 55 -65 0 -4 19 -26 43 -50 23 -25 78 -84 122 -132 119 -130 420 -425
564 -553 113 -100 145 -130 184 -166 22 -21 43 -38 47 -38 5 0 19 -13 32 -29
13 -15 29 -30 35 -32 10 -4 95 -75 144 -121 9 -9 19 -14 22 -12 3 3 14 -7 26
-22 11 -15 21 -24 21 -20 0 4 6 1 13 -6 8 -7 37 -31 65 -53 29 -21 52 -43 52
-48 0 -4 4 -5 10 -2 5 3 15 -3 22 -15 7 -11 18 -20 24 -20 5 0 19 -8 30 -18
10 -9 41 -33 67 -52 27 -19 57 -43 68 -52 10 -10 21 -18 24 -18 3 0 36 -20 73
-45 38 -24 81 -49 95 -56 15 -7 24 -15 22 -20 -3 -4 4 -5 15 -2 11 3 20 0 20
-6 0 -6 19 -11 45 -11 25 0 45 5 45 10 0 6 6 10 13 10 7 0 43 20 80 45 37 25
70 45 73 45 3 0 17 11 32 25 15 14 30 25 34 25 7 0 17 8 69 55 9 8 21 15 27
15 7 0 12 4 12 8 0 9 125 112 136 112 3 0 15 11 26 25 11 14 23 25 28 25 4 0
23 15 42 32 18 18 55 51 81 73 51 42 73 61 149 132 26 24 48 43 51 43 2 0 28
24 58 53 30 28 91 85 134 126 125 116 527 516 628 625 51 54 97 104 102 110
34 37 225 258 250 290 17 21 37 46 45 55 8 9 21 29 29 44 8 15 21 35 30 45 9
10 17 24 19 32 2 8 7 17 11 20 5 3 23 32 40 64 17 33 36 65 42 72 5 7 11 22
12 33 1 12 5 21 10 21 4 0 6 4 3 8 -3 5 3 18 13 28 9 11 16 25 13 32 -2 7 4
23 14 34 11 12 13 18 5 13 -8 -5 -7 2 4 19 10 15 19 34 20 44 1 9 4 24 7 32
11 26 49 184 54 220 3 19 7 46 10 60 17 86 27 293 19 415 -11 187 -71 488
-103 513 -9 6 -13 12 -9 12 4 0 1 16 -7 35 -9 20 -15 38 -16 40 -5 39 -15 65
-23 65 -6 0 -8 3 -4 6 3 4 0 19 -8 34 -8 15 -11 31 -7 35 4 5 1 5 -5 1 -12 -7
-19 13 -13 39 1 5 -2 7 -6 3 -4 -5 -16 11 -26 33 -10 23 -31 58 -48 79 -16 20
-26 41 -22 45 4 5 1 5 -5 1 -7 -4 -13 -3 -13 2 0 4 -9 18 -20 30 -12 12 -19
22 -16 22 7 0 -68 72 -127 122 -65 54 -207 152 -207 143 0 -3 -15 5 -32 18
-25 18 -209 98 -238 103 -13 2 -97 26 -110 31 -8 3 -22 7 -30 8 -8 1 -37 5
-65 10 -27 4 -59 9 -70 11 -27 4 -245 4 -270 0 -11 -1 -54 -9 -95 -16 -41 -8
-78 -13 -82 -12 -5 1 -8 -2 -8 -7 0 -5 -17 -12 -37 -16 -20 -4 -54 -15 -75
-26 -20 -10 -44 -19 -53 -19 -8 0 -15 -4 -15 -10 0 -5 -4 -10 -10 -10 -8 0
-44 -21 -175 -103 -10 -7 -27 -21 -37 -32 -9 -11 -17 -17 -18 -13 0 7 -16 -7
-144 -131 -47 -46 -86 -86 -86 -90 0 -3 -22 -30 -50 -59 -27 -29 -50 -57 -50
-62 0 -5 -6 -13 -14 -17 -7 -4 -18 -18 -25 -30 -6 -13 -18 -23 -26 -23 -12 0
-75 70 -75 83 0 3 -16 23 -35 44 -19 21 -35 41 -35 45 0 8 -2 10 -148 161 -57
59 -106 107 -108 107 -7 0 -139 104 -142 112 -2 5 -8 8 -14 8 -5 0 -30 12 -56
27 -26 16 -49 28 -52 28 -3 1 -24 11 -47 23 -23 12 -52 22 -63 22 -14 0 -19 4
-14 12 4 6 3 8 -3 5 -6 -4 -29 0 -52 8 -23 8 -45 14 -49 14 -4 0 -27 5 -52 10
-57 13 -256 32 -263 25z m2583 -386 c0 -4 3 -7 8 -6 4 2 16 -5 27 -14 11 -9
72 -58 135 -108 63 -51 120 -98 126 -106 6 -7 14 -11 17 -7 4 3 7 1 7 -6 0 -7
-39 -52 -86 -99 -47 -48 -113 -117 -147 -154 -34 -38 -69 -68 -78 -68 -10 0
-27 12 -38 26 -12 15 -21 24 -21 21 0 -7 -64 49 -127 111 -19 17 -37 32 -41
32 -14 0 -66 59 -68 77 -2 10 5 25 14 34 9 9 40 42 67 74 140 163 177 202 190
202 8 0 15 -4 15 -9z m-2604 -192 c43 -40 107 -99 142 -131 34 -32 62 -63 62
-69 0 -10 -68 -78 -253 -255 -27 -25 -54 -46 -60 -47 -13 -1 -117 95 -117 107
0 4 -34 40 -76 81 -104 100 -103 99 -51 150 116 113 186 178 192 178 3 0 18
14 32 30 13 17 30 30 37 30 7 0 48 -33 92 -74z m1760 59 c12 -8 24 -12 26 -10
3 3 17 -6 32 -20 15 -14 30 -25 34 -25 4 0 41 -32 82 -70 41 -38 78 -70 83
-70 23 -1 -1 -43 -56 -100 -143 -147 -174 -180 -169 -185 2 -2 -7 -10 -21 -16
-24 -11 -31 -8 -72 25 -25 21 -45 42 -45 47 0 5 -6 9 -12 9 -7 0 -32 19 -55
41 -24 22 -43 37 -43 34 0 -4 -15 6 -34 21 -18 16 -43 37 -56 47 l-22 19 28
31 c16 18 74 78 129 134 105 108 127 119 171 88z m-835 -124 c62 -60 100 -106
103 -122 4 -23 -10 -40 -90 -119 -52 -51 -94 -90 -94 -87 0 4 -16 -11 -36 -33
-20 -22 -41 -40 -46 -40 -5 0 -29 20 -53 44 -24 24 -46 42 -48 40 -5 -5 -177
171 -177 182 0 17 219 225 251 238 50 21 81 4 190 -103z m2194 -154 c8 -12 15
-18 15 -14 0 5 6 2 13 -5 8 -7 36 -31 62 -53 49 -41 114 -96 149 -127 12 -11
15 -18 7 -18 -7 0 -10 -4 -7 -8 3 -5 -43 -57 -102 -116 -59 -59 -125 -127
-147 -152 -22 -24 -43 -44 -48 -44 -5 0 -48 33 -96 73 -48 39 -113 92 -144
117 -31 25 -56 49 -57 54 0 17 301 312 321 313 10 1 26 -8 34 -20z m-912 -77
c8 -11 16 -17 19 -14 3 3 15 -6 26 -20 11 -15 23 -26 26 -26 7 0 49 -34 89
-72 16 -16 31 -28 33 -28 10 0 84 -65 84 -74 0 -9 -6 -16 -107 -126 -175 -189
-184 -198 -202 -193 -10 2 -46 33 -80 69 -35 35 -66 64 -69 64 -12 0 -132 124
-132 137 0 7 9 18 20 25 11 7 20 18 20 24 0 6 10 20 23 31 12 11 47 49 77 84
128 148 145 159 173 119z m-955 -32 c6 -1 12 -5 12 -10 0 -4 6 -8 14 -8 15 0
125 -85 162 -125 13 -14 26 -25 29 -25 12 2 75 -60 75 -72 0 -7 -31 -42 -68
-77 -37 -35 -101 -97 -142 -136 -41 -40 -80 -75 -87 -79 -7 -4 -27 8 -48 28
-19 19 -35 32 -35 29 0 -11 -226 201 -239 224 -12 24 -11 28 20 58 19 18 59
60 89 95 68 77 137 116 185 104 11 -3 26 -6 33 -6z m-844 -58 c25 -27 46 -46
46 -43 0 4 38 -31 85 -78 46 -46 85 -89 85 -95 0 -17 -300 -304 -319 -304 -10
0 -29 12 -43 28 -14 15 -73 71 -131 126 -59 54 -107 103 -107 109 0 5 39 47
87 91 47 45 116 111 152 149 35 37 72 67 82 67 9 0 37 -22 63 -50z m-868 -53
c40 -40 102 -99 138 -131 36 -32 66 -62 66 -68 0 -11 -20 -30 -110 -110 -25
-22 -58 -52 -75 -67 -98 -89 -170 -151 -178 -151 -13 0 -257 244 -257 257 0
23 307 343 329 343 8 0 47 -33 87 -73z m3124 -236 c7 -11 16 -18 20 -16 3 2
33 -21 65 -52 33 -30 61 -54 63 -53 2 1 16 -9 30 -22 15 -13 42 -35 60 -48 39
-29 40 -46 4 -85 -15 -17 -67 -77 -116 -135 -50 -58 -95 -109 -101 -115 -6 -5
-20 -22 -32 -38 l-21 -27 -20 25 c-11 14 -23 25 -27 25 -7 0 -42 30 -127 111
-21 20 -38 34 -38 31 0 -4 -13 8 -29 25 -16 18 -31 30 -33 27 -3 -2 -11 3 -18
11 -21 26 -10 42 140 204 8 9 41 47 74 84 61 70 82 80 106 48z m-894 -77 c27
-25 63 -56 79 -69 17 -13 57 -49 90 -81 33 -31 70 -63 83 -71 33 -23 27 -43
-31 -97 -28 -26 -96 -91 -149 -144 -88 -86 -96 -97 -86 -116 16 -30 19 -125 6
-166 -7 -19 -11 -38 -10 -42 1 -5 -3 -8 -8 -8 -6 0 -10 -6 -10 -13 0 -13 -84
-112 -150 -177 -74 -72 -148 -140 -153 -140 -3 0 -18 -12 -34 -27 -66 -64 -90
-80 -114 -76 -13 2 -30 11 -36 20 -7 9 -13 13 -13 9 0 -4 -17 5 -37 21 -35 25
-64 43 -126 76 -44 24 -147 98 -147 106 0 5 -8 11 -18 13 -16 5 -162 167 -162
181 0 3 -22 28 -50 57 -27 29 -50 54 -50 57 0 3 28 33 61 67 l62 61 -59 50
c-32 27 -76 67 -96 88 -21 20 -38 34 -38 31 0 -3 -25 18 -55 47 -30 30 -55 61
-55 69 0 8 67 81 149 163 l149 147 48 -42 c26 -24 77 -70 114 -103 161 -146
173 -155 185 -145 6 5 15 7 18 3 4 -3 7 -2 7 4 0 16 96 54 125 49 31 -6 135
-66 135 -78 0 -4 8 -8 17 -8 13 0 14 3 5 12 -7 7 -12 18 -12 26 0 17 250 272
267 272 7 0 13 5 13 10 0 24 41 7 86 -36z m-1846 -58 c0 4 44 -35 98 -88 53
-53 113 -110 132 -126 28 -25 32 -32 19 -37 -9 -3 -83 -73 -166 -154 -82 -82
-159 -151 -171 -155 -18 -6 -45 13 -156 111 -74 65 -135 124 -135 131 -1 6 -6
12 -13 12 -6 0 13 25 43 55 30 30 57 55 60 55 3 0 48 43 100 96 52 52 108 104
124 115 30 19 30 19 48 -2 9 -12 17 -18 17 -13z m3252 -276 c154 -139 234
-220 235 -240 1 -11 -2 -20 -8 -20 -5 0 -9 -4 -9 -10 0 -9 -29 -56 -67 -110
-10 -14 -18 -29 -18 -33 0 -4 -5 -11 -11 -15 -6 -4 -14 -17 -18 -29 -4 -13
-12 -23 -17 -23 -5 0 -9 -6 -9 -13 0 -7 -10 -24 -22 -37 -13 -14 -22 -27 -21
-30 1 -3 -9 -18 -23 -34 -13 -17 -24 -24 -24 -17 0 7 -4 10 -8 7 -5 -3 -15 4
-22 15 -8 10 -20 19 -27 19 -6 0 -19 10 -27 22 -9 12 -16 19 -16 14 0 -4 -28
15 -62 43 -35 28 -78 64 -97 79 -19 15 -47 38 -62 52 -15 14 -35 30 -45 36
-11 6 -20 21 -20 33 -1 21 16 43 111 147 17 18 50 56 75 86 64 76 120 130 131
126 5 -2 41 -32 81 -68z m-930 -87 c98 -89 136 -124 193 -177 33 -30 63 -56
68 -56 22 0 -5 -34 -115 -146 -68 -68 -125 -129 -126 -134 -2 -6 -12 -15 -23
-20 -15 -8 -25 -4 -55 25 -19 19 -38 35 -40 35 -6 0 -203 167 -226 191 -10 10
-18 21 -18 25 0 10 283 294 293 294 4 0 27 -17 49 -37z m-1849 -102 c56 -54
125 -118 152 -141 28 -23 51 -44 53 -45 1 -1 4 -12 7 -23 2 -15 -7 -31 -33
-53 -20 -17 -94 -88 -165 -157 -70 -69 -133 -127 -141 -128 -7 -1 -76 62 -152
140 -184 188 -190 196 -160 213 7 4 67 58 132 120 148 138 187 173 197 173 5
0 54 -45 110 -99z m-844 -129 c25 -24 61 -58 80 -75 20 -16 36 -37 38 -46 2
-16 -34 -61 -49 -61 -4 0 -26 -20 -49 -45 -23 -25 -47 -45 -53 -45 -6 -1 -20
-12 -31 -26 -11 -14 -44 -45 -73 -71 -51 -44 -54 -45 -72 -28 -11 10 -20 24
-20 30 0 7 -7 16 -16 19 -8 3 -12 10 -9 16 3 5 2 10 -2 10 -5 0 -17 15 -28 33
-10 17 -27 41 -37 51 -10 11 -18 26 -18 33 0 7 -3 13 -8 13 -9 0 -37 54 -47
89 -6 20 9 39 111 141 l119 118 59 -56 c32 -32 80 -77 105 -100z m3231 -244
c136 -107 230 -191 244 -220 14 -28 14 -33 -10 -80 -14 -27 -61 -86 -105 -131
-43 -45 -79 -85 -79 -89 0 -4 -9 -12 -19 -18 -20 -10 -35 -2 -103 62 -16 15
-30 26 -32 25 -2 -1 -24 16 -48 38 -23 23 -76 67 -115 98 -40 32 -73 62 -73
67 0 6 -5 10 -11 10 -6 0 -22 10 -34 22 l-23 22 52 56 c173 183 220 229 227
224 5 -3 9 1 9 8 0 7 12 1 28 -15 15 -15 56 -51 92 -79z m-2097 -62 c61 -60
137 -126 147 -126 3 0 23 -16 44 -35 21 -19 41 -35 45 -35 3 0 32 -25 64 -55
31 -30 57 -52 57 -49 0 4 15 -7 33 -22 18 -16 48 -40 67 -54 19 -14 45 -35 57
-47 13 -12 23 -19 23 -16 0 3 6 1 13 -5 27 -22 63 -17 98 13 19 17 50 41 68
55 18 14 52 44 74 67 23 24 45 43 48 43 4 0 78 72 165 160 88 88 167 160 176
160 10 0 23 -9 30 -20 7 -11 18 -20 25 -20 6 0 22 -13 36 -29 14 -17 27 -28
30 -25 2 3 13 -5 23 -18 11 -13 34 -34 52 -46 17 -13 32 -28 32 -34 0 -6 -38
-49 -85 -96 -47 -47 -85 -88 -85 -91 0 -14 -138 -141 -153 -141 -9 0 -22 9
-29 20 -7 11 -17 20 -23 20 -5 0 -29 18 -53 40 -24 22 -54 47 -66 55 -21 14
-24 13 -41 -5 -10 -11 -21 -20 -25 -20 -4 0 -26 -18 -49 -41 l-41 -41 23 -29
c12 -15 27 -28 32 -28 6 -1 18 -9 27 -18 9 -10 34 -31 57 -47 71 -52 72 -50
-119 -239 -133 -133 -173 -168 -181 -157 -5 8 -9 11 -9 7 0 -4 -6 -3 -12 3 -7
6 -44 34 -83 62 -38 28 -72 54 -75 58 -3 3 -25 21 -50 40 -25 19 -47 37 -50
40 -3 3 -17 13 -32 23 -16 10 -28 23 -28 30 0 6 43 54 95 106 52 52 95 98 95
103 0 4 -10 16 -22 26 -11 9 -29 25 -40 35 -10 9 -18 14 -18 11 0 -4 -11 5
-25 21 -37 39 -57 30 -155 -70 -47 -46 -92 -85 -100 -85 -8 0 -37 19 -63 43
-75 67 -118 103 -172 145 -74 58 -105 89 -105 105 0 8 17 30 38 49 20 20 61
60 91 91 46 48 52 58 41 71 -7 9 -9 16 -4 16 4 0 0 6 -11 13 -10 8 -15 19 -11
25 3 5 1 12 -5 14 -17 6 -1 66 24 91 l21 21 9 -43 c7 -33 21 -56 60 -95z
m-831 22 c25 -29 95 -102 157 -163 61 -60 111 -114 111 -119 0 -9 -61 -76 -70
-76 -3 0 -62 -56 -132 -124 -71 -68 -134 -123 -142 -122 -7 1 -28 16 -47 33
-19 17 -66 59 -105 95 -80 72 -123 119 -149 165 -17 29 -17 33 -2 65 9 18 49
64 89 101 40 38 87 82 103 98 17 16 34 29 38 29 4 0 21 16 38 35 17 19 39 35
49 35 10 0 38 -24 62 -52z m2456 -348 c29 -27 81 -73 115 -102 34 -29 81 -72
104 -94 23 -23 44 -40 46 -38 2 2 21 -14 42 -37 l40 -40 -156 -154 c-155 -154
-156 -154 -176 -135 -12 10 -23 17 -25 15 -2 -2 -28 18 -57 45 -30 28 -56 50
-59 50 -2 0 -21 15 -42 33 -54 47 -109 92 -162 132 -27 20 -48 41 -48 47 0 14
2 17 159 177 72 74 131 138 131 143 0 22 40 3 88 -42z m-1905 -192 c10 -10 21
-18 25 -18 4 0 25 -17 48 -38 23 -20 64 -55 92 -77 28 -22 51 -44 52 -50 0 -9
-80 -95 -90 -95 -3 0 -64 -58 -137 -128 -72 -70 -140 -128 -151 -129 -13 -1
-47 26 -95 75 -41 42 -84 82 -94 88 -10 6 -17 14 -16 17 1 3 -23 31 -53 60
-47 46 -54 58 -45 73 15 27 313 320 331 326 13 5 70 -40 133 -104z m1427 -243
c0 4 16 -8 35 -28 20 -21 39 -37 43 -37 13 0 262 -257 262 -271 0 -17 -131
-139 -150 -139 -5 0 -10 -4 -10 -9 0 -5 -34 -38 -76 -75 -75 -66 -75 -66 -105
-51 -16 9 -29 20 -29 26 0 6 -4 7 -10 4 -5 -3 -10 -3 -10 2 -1 4 -24 24 -52
43 -28 19 -59 43 -69 53 -11 9 -22 17 -25 16 -3 -1 -21 13 -40 29 -19 17 -34
28 -34 25 0 -5 -80 57 -107 84 -10 9 -3 19 35 49 26 21 105 100 177 175 128
136 129 137 147 117 10 -12 18 -17 18 -13z m-968 -130 c24 -22 45 -42 46 -47
2 -4 10 -8 17 -8 7 0 15 -3 17 -8 2 -4 35 -32 73 -62 39 -29 78 -62 88 -72 10
-10 22 -18 27 -18 21 0 8 -27 -30 -64 -22 -21 -40 -36 -40 -33 0 4 -39 -34
-87 -83 -48 -49 -88 -88 -90 -87 -1 2 -27 -21 -58 -50 -60 -58 -75 -61 -126
-22 -86 64 -134 104 -137 111 -2 4 -9 8 -16 8 -7 0 -21 8 -32 18 -10 9 -36 30
-57 45 -20 15 -37 33 -37 40 0 7 61 72 135 146 74 73 135 136 135 139 0 4 18
25 41 48 50 51 72 51 131 -1z m480 -376 c9 -11 21 -20 25 -20 10 0 145 -104
181 -139 15 -14 30 -24 34 -23 4 2 15 -7 25 -20 10 -12 28 -27 38 -33 29 -16
26 -49 -6 -73 -16 -12 -31 -21 -34 -21 -3 0 -19 -15 -36 -32 -17 -18 -28 -26
-24 -18 4 8 -7 -2 -25 -23 -18 -21 -34 -36 -37 -34 -2 3 -14 -5 -27 -17 -52
-50 -111 -96 -123 -96 -7 0 -13 -5 -13 -11 0 -6 -6 -9 -12 -6 -7 2 -22 1 -33
-3 -11 -4 -26 -3 -32 2 -7 6 -13 8 -13 4 0 -10 -85 40 -146 85 -30 23 -54 46
-54 52 0 6 -3 8 -6 4 -8 -8 -114 72 -114 87 1 10 130 145 130 135 0 -2 55 49
122 114 129 124 142 130 180 86z"/>
</g>
</svg>
